<?xml version="1.0" standalone="no"?>
<!DOCTYPE svg PUBLIC "-//W3C//DTD SVG 20010904//EN"
 "http://www.w3.org/TR/2001/REC-SVG-20010904/DTD/svg10.dtd">
<svg version="1.0" xmlns="http://www.w3.org/2000/svg"
 width="353.000000pt" height="353.000000pt" viewBox="0 0 353.000000 353.000000"
 preserveAspectRatio="xMidYMid meet">
<metadata>
Created by potrace 1.14, written by Peter Selinger 2001-2017
</metadata>
<g transform="translate(0.000000,353.000000) scale(0.100000,-0.100000)"
fill="#000000" stroke="none">
<path d="M495 2931 c-88 -26 -124 -44 -182 -89 -44 -35 -143 -157 -143 -175 0
-4 -11 -30 -24 -59 -94 -209 -141 -488 -140 -824 2 -228 3 -234 82 -313 96
-95 252 -170 390 -187 25 -3 50 -7 54 -10 5 -3 172 36 373 86 l364 91 34 -19
c32 -17 33 -19 19 -40 -21 -31 -20 -96 1 -119 14 -17 34 -20 154 -22 156 -3
337 -8 371 -10 28 -1 27 -33 -1 -37 -126 -18 -159 -27 -172 -47 -22 -36 -23
-102 -2 -132 15 -20 33 -23 150 -24 61 -1 77 -4 77 -16 0 -10 -21 -21 -61 -32
-65 -18 -79 -34 -79 -94 0 -24 21 -81 36 -98 2 -2 23 -5 46 -8 66 -7 67 -7 58
-48 -10 -44 4 -91 31 -105 13 -8 36 -3 91 19 72 29 73 29 88 10 18 -22 32 -22
502 5 20 1 44 9 54 17 13 11 58 14 213 14 195 1 196 1 251 29 89 47 193 164
275 311 41 75 59 127 69 206 3 19 5 34 6 34 1 0 3 9 4 20 2 11 6 40 9 65 7 45
12 92 23 186 10 88 12 433 2 481 -4 27 -11 62 -14 78 -9 50 -50 130 -90 174
-74 82 -191 130 -336 136 -72 3 -108 -1 -204 -26 -64 -16 -126 -31 -138 -33
-11 -3 -77 -19 -146 -36 -69 -17 -132 -33 -140 -35 -8 -2 -77 -19 -153 -38
-137 -35 -139 -35 -117 -12 22 24 22 24 5 74 -12 31 -24 49 -34 49 -29 -1
-422 14 -439 16 -12 2 -17 13 -18 42 0 21 -12 59 -26 84 -22 39 -113 215 -217
417 -29 55 -35 61 -59 57 -15 -2 -67 -6 -117 -8 -49 -3 -135 -9 -190 -13 -145
-9 -213 -8 -275 7 -90 21 -245 21 -315 1z m289 -627 c10 -4 23 0 28 7 8 11 8
10 4 -4 -11 -34 37 -111 124 -197 47 -47 104 -108 127 -136 l42 -51 -311 -77
c-206 -51 -313 -74 -318 -66 -11 18 -2 182 15 265 42 206 149 301 289 259z
m671 -143 c-123 -6 -175 -18 -175 -41 0 -6 -4 -10 -10 -10 -15 0 -12 47 3 53
6 3 80 5 162 4 l150 -1 -130 -5z m235 4 c0 -7 -30 -13 -34 -7 -3 4 4 9 15 9
10 1 19 0 19 -2z m40 1 c0 -2 -7 -7 -16 -10 -8 -3 -12 -2 -9 4 6 10 25 14 25
6z m1331 -303 c0 -21 3 -47 5 -58 3 -11 5 -94 6 -185 1 -147 -1 -170 -19 -210
-53 -116 -161 -165 -338 -152 -17 2 -24 15 -38 70 -17 65 -22 72 -118 167 -98
98 -205 222 -198 230 4 4 593 153 639 162 13 2 27 6 29 9 16 16 31 0 32 -33z
m-791 -435 c0 -13 -7 -16 -32 -13 -18 2 -34 4 -36 4 -2 1 9 12 25 25 29 25 43
20 43 -16z"/>
</g>
</svg>
